<?xml version="1.0" encoding="UTF-8" standalone="no"?>
<!-- Created with Inkscape (http://www.inkscape.org/) -->
<svg
   xmlns:dc="http://purl.org/dc/elements/1.1/"
   xmlns:cc="http://web.resource.org/cc/"
   xmlns:rdf="http://www.w3.org/1999/02/22-rdf-syntax-ns#"
   xmlns:svg="http://www.w3.org/2000/svg"
   xmlns="http://www.w3.org/2000/svg"
   xmlns:sodipodi="http://sodipodi.sourceforge.net/DTD/sodipodi-0.dtd"
   xmlns:inkscape="http://www.inkscape.org/namespaces/inkscape"
   id="svg2"
   sodipodi:version="0.32"
   inkscape:version="0.45+devel"
   width="1184.9152"
   height="788.14374"
   sodipodi:docbase="/home/valessio/Desktop"
   sodipodi:docname="Bandeira_de_Jacobina.svg"
   version="1.0"
   inkscape:output_extension="org.inkscape.output.svg.inkscape">
  <metadata
     id="metadata7">
    <rdf:RDF>
      <cc:Work
         rdf:about="">
        <dc:format>image/svg+xml</dc:format>
        <dc:type
           rdf:resource="http://purl.org/dc/dcmitype/StillImage" />
        <cc:license
           rdf:resource="http://web.resource.org/cc/PublicDomain" />
        <dc:title>Bandeira de Jacobina</dc:title>
        <dc:date>10 03 2006</dc:date>
        <dc:creator>
          <cc:Agent>
            <dc:title>Valessio Brito</dc:title>
          </cc:Agent>
        </dc:creator>
        <dc:rights>
          <cc:Agent>
            <dc:title>PublicDomain</dc:title>
          </cc:Agent>
        </dc:rights>
        <dc:relation />
        <dc:language>pt_BR</dc:language>
        <dc:subject>
          <rdf:Bag>
            <rdf:li>Bandeira</rdf:li>
            <rdf:li>Jacobina</rdf:li>
            <rdf:li>Bahia</rdf:li>
            <rdf:li>Brazil</rdf:li>
          </rdf:Bag>
        </dc:subject>
        <dc:description>Esta é uma versão em SVG da Bandeira Oficial da Cidade de Jacobina Bahia.</dc:description>
      </cc:Work>
      <cc:License
         rdf:about="http://web.resource.org/cc/PublicDomain">
        <cc:permits
           rdf:resource="http://web.resource.org/cc/Reproduction" />
        <cc:permits
           rdf:resource="http://web.resource.org/cc/Distribution" />
        <cc:permits
           rdf:resource="http://web.resource.org/cc/DerivativeWorks" />
      </cc:License>
    </rdf:RDF>
  </metadata>
  <defs
     id="defs5" />
  <sodipodi:namedview
     inkscape:window-height="689"
     inkscape:window-width="1014"
     inkscape:pageshadow="2"
     inkscape:pageopacity="0.0"
     borderopacity="1.0"
     bordercolor="#666666"
     pagecolor="#ffffff"
     id="base"
     inkscape:zoom="0.6246979"
     inkscape:cx="444.0437"
     inkscape:cy="-61.961235"
     inkscape:window-x="0"
     inkscape:window-y="25"
     inkscape:current-layer="svg2" />
  <rect
     style="opacity:1;fill:#ffffff;fill-opacity:1;stroke:none;stroke-width:4.863626;stroke-linecap:round;stroke-linejoin:round;stroke-miterlimit:4;stroke-dasharray:none;stroke-dashoffset:0;stroke-opacity:1"
     id="rect1872"
     width="1184.9152"
     height="788.14374"
     x="0"
     y="0"
     ry="0" />
  <g
     id="g1925"
     transform="matrix(1.0135325,0,0,1.0135325,211.9592,-155.78433)">
    <path
       sodipodi:nodetypes="cscsssssscsccc"
       id="path5499"
       d="M 372.0657,308.40665 C 253.53696,308.40665 157.35339,404.59017 157.35339,523.11895 C 157.35339,533.68188 158.08995,544.05757 159.56565,554.21352 C 188.68441,526.08134 237.84103,454.45094 294.02201,454.53883 C 295.95338,454.54187 297.97404,454.73033 299.92138,454.90754 C 362.99787,460.64672 368.1954,534.20752 378.57958,535.5322 C 388.84192,536.84123 397.54997,502.49536 435.11516,511.19732 C 471.95083,519.73028 481.63865,565.74127 488.08654,566.99548 C 495.26265,568.39111 509.10204,549.3609 531.22565,557.65482 C 550.25963,564.7905 560.76888,596.54386 566.49893,614.06749 C 579.46472,586.42748 586.77796,555.65057 586.778,523.11895 C 586.778,404.59021 490.59448,308.40661 372.0657,308.40665 z M 566.49893,614.06749 C 561.85295,623.3634 561.98537,623.42341 566.49893,614.06749 z"
       style="fill:#0000aa;fill-opacity:1;stroke:none;stroke-width:2.06200004;stroke-linecap:round;stroke-linejoin:round;stroke-miterlimit:4;stroke-dasharray:none;stroke-dashoffset:0;stroke-opacity:1" />
    <path
       id="path5515"
       d="M 171.36438,623.03945 L 170.50406,680.68115 L 107.33169,671.83211 C 170.50858,757.4855 262.46698,814.47519 369.85344,817.9643 C 480.15355,821.67617 566.32117,757.54555 636.30809,679.08341 L 572.88991,686.21181 L 573.62733,628.5701 C 568.3017,636.19495 562.64059,643.66988 556.54375,650.81562 C 524.09355,696.08779 475.48625,728.9179 419.01481,740.65803 C 418.93155,740.67542 418.85226,740.64073 418.769,740.65803 C 418.63965,740.67998 418.40698,740.75923 418.27739,740.78094 C 404.54736,743.09089 389.49741,744.66307 372.80312,745.45127 C 290.43956,745.45119 218.30716,701.30156 178.73859,635.45269 C 178.70764,635.40495 178.6466,635.37753 178.61569,635.32979 C 176.00491,631.29616 173.68079,627.18186 171.36438,623.03945 z M 206.76057,692.7257 L 213.15155,698.37925 L 195.08475,724.18898 C 192.79493,727.44227 190.08708,729.22412 187.09602,729.47382 C 184.12727,729.69155 181.06196,728.36195 177.87827,725.54091 C 176.71279,724.50813 175.66141,723.37565 174.80568,722.09962 C 173.97844,720.84864 173.31782,719.41312 172.83923,717.798 C 172.38313,716.15101 172.426,714.35442 172.83923,712.39025 C 173.27495,710.39429 174.12883,708.3773 175.54311,706.36798 L 178.00117,702.92668 L 184.39215,708.58024 L 182.05698,711.89863 C 180.93449,713.4935 180.43549,714.98809 180.45924,716.20025 C 180.50549,717.38055 181.0804,718.43564 182.30279,719.51864 C 183.41136,720.50101 184.53032,720.92038 185.62118,720.74768 C 186.71194,720.57495 187.77335,719.84307 188.69377,718.53541 L 206.76057,692.7257 z M 540.0747,693.34021 C 541.57585,693.28393 543.16808,693.55924 544.74502,694.20054 C 547.98508,695.52341 551.7403,699.26258 556.05214,705.38475 C 557.84874,707.93571 559.37439,710.35008 560.47666,712.63605 C 561.55637,714.89024 562.33799,717.26454 562.81183,719.64155 C 563.26321,721.98678 563.08993,724.21666 562.32021,726.40123 C 561.55656,728.5289 560.15924,730.51156 558.1415,732.3006 C 556.12368,734.08972 554.01769,735.15428 551.99632,735.49609 C 549.95251,735.80608 548.05453,735.39954 546.09696,734.38996 C 544.16787,733.35517 542.29376,731.94298 540.56631,730.21124 C 538.81648,728.44757 537.02252,726.34393 535.15856,723.69736 C 530.59956,717.22426 528.2445,711.90563 528.15306,707.84282 C 527.98501,703.27804 529.59294,699.5091 532.94629,696.5357 C 535.23757,694.50412 537.57277,693.43397 540.0747,693.34021 z M 539.82889,700.71442 C 538.8055,700.63765 537.75105,701.06158 536.7563,701.94345 C 535.16489,703.35458 534.6835,705.29767 535.28146,707.71991 C 535.85712,710.11038 537.75668,713.60233 541.05792,718.28961 C 543.34868,721.54217 545.28529,723.8962 546.95729,725.41801 C 548.60683,726.90795 549.98964,727.67648 551.0131,727.75317 C 552.04258,727.77268 553.09106,727.40606 554.08568,726.52414 C 555.81935,724.98712 556.30975,722.83574 555.56053,720.13316 C 554.94915,718.08518 553.10659,714.9151 550.02987,710.54669 C 547.62691,707.13485 545.48477,704.70105 543.7618,703.17248 C 542.06746,701.61891 540.82997,700.75925 539.82889,700.71442 z M 224.70448,707.10539 L 232.32449,712.63605 L 222.24641,758.35613 L 215.24091,753.19418 L 217.33027,744.09933 L 204.91703,735.00448 L 198.28023,740.90384 L 191.39764,735.8648 L 224.70448,707.10539 z M 517.82917,711.52992 C 518.58268,711.47112 519.40599,711.5475 520.16433,711.65282 C 523.20786,712.01819 525.50555,713.63697 527.16983,716.44605 C 528.29287,718.34129 528.83991,720.14071 528.76758,721.85381 C 528.70544,723.51079 528.25138,725.14707 527.41564,726.89285 C 529.91729,726.63737 532.00703,726.90539 533.68372,727.75317 C 535.39056,728.57857 536.84483,730.16849 538.10824,732.3006 C 540.11347,735.6851 540.77991,739.12935 539.95179,742.8703 C 539.10362,746.57746 536.90893,749.71348 533.56081,752.21096 C 530.18248,754.73097 526.85752,755.71781 523.48273,755.16064 C 520.10794,754.60343 517.39647,752.67953 515.3711,749.26128 C 514.10781,747.12901 513.45247,744.93315 513.40465,742.8703 C 513.38706,740.78507 513.947,738.5999 515.1253,736.1106 C 513.15585,736.31064 511.55453,736.02896 510.20916,735.37319 C 508.86371,734.71761 507.66767,733.53511 506.64496,731.80899 C 504.96049,728.96612 504.5683,725.85877 505.41592,722.59123 C 506.27373,719.26733 508.20621,716.58418 511.19239,714.3567 C 513.40945,712.70307 515.56861,711.70635 517.82917,711.52992 z M 223.22964,718.65832 L 210.57058,730.08834 L 219.17382,736.35642 L 223.22964,718.65832 z M 517.70627,718.78123 C 516.65516,718.85158 515.69694,719.21719 514.63368,720.01026 C 513.21591,721.06773 512.31334,722.38825 511.92981,723.94317 C 511.5563,725.44188 511.72211,726.85721 512.54433,728.24478 C 513.36646,729.63232 514.44656,730.44159 515.86272,730.70285 C 517.28899,730.90768 518.74657,730.53138 520.16433,729.47382 C 521.5519,728.43899 522.39205,727.19639 522.74531,725.66382 C 523.129,724.10886 522.953,722.6269 522.13079,721.2393 C 521.30858,719.85156 520.20854,719.00878 518.8124,718.78123 C 518.46339,718.72439 518.05665,718.75778 517.70627,718.78123 z M 248.79355,725.41801 C 251.75354,725.24886 254.89227,726.12841 258.01131,727.87608 C 262.1916,730.21828 264.95101,733.34196 266.49164,737.33964 C 268.06465,741.35553 268.12573,745.66353 266.49164,750.2445 L 259.48615,746.31159 C 260.69867,741.0402 259.20947,737.32871 255.06163,735.00448 C 252.17758,733.38864 249.42486,733.31706 246.7042,734.88157 C 243.98345,736.44609 241.65682,739.45405 239.6987,743.85352 C 237.77283,748.18016 237.01524,751.97597 237.48643,755.28354 C 237.98992,758.60937 239.70613,761.07809 242.52547,762.65775 C 244.79378,763.92886 246.81758,764.25997 248.79355,763.64098 C 250.76952,763.02182 252.47283,761.5115 253.83259,759.09355 L 260.96099,763.02646 C 258.71133,767.4441 255.53991,770.21857 251.62033,771.38389 C 247.71696,772.51287 243.61415,771.88683 239.20708,769.41744 C 234.28147,766.65748 231.22269,762.57461 229.98933,757.25 C 228.77217,751.88901 229.59914,746.07401 232.4474,739.67481 C 235.31177,733.23927 239.04831,728.88086 243.63161,726.76994 C 245.35037,725.97845 247.01757,725.51947 248.79355,725.41801 z M 495.33784,727.63027 C 496.09296,727.65072 496.80383,727.6917 497.5501,727.87608 C 500.54994,728.55879 502.76369,730.43554 504.18689,733.40673 C 505.14703,735.41145 505.50764,737.23931 505.29302,738.93739 C 505.09307,740.58048 504.5499,742.20296 503.57237,743.85352 C 506.08452,743.86127 508.1187,744.43139 509.71755,745.45127 C 511.34813,746.4518 512.69315,748.11216 513.77336,750.3674 C 515.48806,753.94738 515.76958,757.54505 514.63368,761.18291 C 513.4804,764.78498 511.16974,767.65062 507.62819,769.78615 C 504.05478,771.941 500.61793,772.53831 497.3043,771.6297 C 493.9907,770.72104 491.41622,768.48566 489.68428,764.87001 C 488.60411,762.61464 488.08536,760.41493 488.20944,758.35613 C 488.3655,756.27806 489.16428,754.07429 490.54461,751.71934 C 488.56726,751.71211 486.91339,751.28421 485.62848,750.49031 C 484.34347,749.69641 483.30742,748.38305 482.43298,746.5574 C 480.99252,743.55014 480.82533,740.50406 481.94137,737.33964 C 483.07212,734.12016 485.17367,731.50148 488.33235,729.59673 C 490.67738,728.18269 493.07248,727.56892 495.33784,727.63027 z M 526.43241,733.03802 C 525.25706,733.00884 524.16749,733.51252 522.99112,734.38996 C 521.48304,735.51493 520.58068,736.91111 520.28724,738.69158 C 520.02405,740.44955 520.43339,742.27179 521.51628,744.09933 C 522.5791,745.89301 523.79972,746.92068 525.32628,747.29482 C 526.85284,747.66915 528.45825,747.3362 529.99661,746.18869 C 531.53485,745.0413 532.41716,743.61118 532.70049,741.88707 C 533.01386,740.14042 532.61703,738.3283 531.59436,736.60222 C 530.49137,734.7407 529.20807,733.69187 527.66145,733.28383 C 527.26977,733.17339 526.82421,733.04773 526.43241,733.03802 z M 493.4943,734.75867 C 492.77661,734.89152 492.03184,735.28981 491.28203,735.7419 C 489.78257,736.64611 488.84379,737.79818 488.33235,739.3061 C 487.83578,740.75903 487.87507,742.26294 488.57816,743.73062 C 489.28117,745.1985 490.38545,746.14877 491.77364,746.5574 C 493.17671,746.91109 494.57573,746.60137 496.07526,745.69708 C 497.54295,744.81217 498.54549,743.62164 499.02494,742.13288 C 499.5363,740.62488 499.48215,739.17612 498.77914,737.70835 C 498.07609,736.24071 496.95478,735.25438 495.58365,734.88157 C 494.89811,734.69519 494.21197,734.62582 493.4943,734.75867 z M 470.26554,740.65803 L 484.89105,780.60168 L 477.88555,783.79714 L 467.80747,756.26677 L 459.20423,760.19968 L 457.36068,754.91483 C 463.52772,752.07916 466.23352,748.03193 465.59521,742.7474 L 470.26554,740.65803 z M 281.73167,741.51836 C 284.22199,741.33249 286.90958,741.82965 289.59749,742.8703 C 295.00737,744.96489 298.72464,748.65793 300.7817,754.05451 C 302.85049,759.41286 302.83767,765.43667 300.7817,772.12129 C 298.8676,778.34507 295.63545,782.88716 291.07233,785.76362 C 286.55527,788.61486 281.55646,788.99086 276.07812,786.86969 C 270.63394,784.76197 266.91672,780.94605 264.8939,775.56258 C 262.87117,770.17921 262.78594,764.31877 264.771,757.86452 C 266.75594,751.41042 270.05195,746.81446 274.60327,743.97642 C 276.896,742.56408 279.24135,741.70423 281.73167,741.51836 z M 282.8378,749.62999 C 281.38129,749.81841 280.01421,750.37059 278.65909,751.35063 C 275.96052,753.2723 273.87261,756.39616 272.51391,760.8142 C 271.15502,765.23239 270.96619,769.19456 272.0223,772.61294 C 273.09016,775.99282 275.17453,778.28915 278.29037,779.49553 C 281.37197,780.68861 284.31807,780.31116 287.01652,778.38938 C 289.74922,776.48088 291.7154,773.3515 293.03879,769.04873 C 294.43301,764.51542 294.70937,760.54554 293.65331,757.12709 C 292.63142,753.72206 290.53525,751.46417 287.38523,750.2445 C 285.82733,749.64132 284.29431,749.44156 282.8378,749.62999 z M 500.8685,749.87579 C 500.07299,749.97486 499.23996,750.35883 498.41043,750.85902 C 496.81509,751.82109 495.90111,753.17283 495.46075,754.91483 C 495.05236,756.63745 495.27228,758.38948 496.19817,760.32258 C 497.10699,762.21994 498.27364,763.47705 499.76237,764.00969 C 501.25117,764.54232 502.8055,764.3764 504.43269,763.39517 C 506.05994,762.41391 507.07959,761.0263 507.50528,759.33936 C 507.9628,757.63318 507.76525,755.88025 506.89076,754.05451 C 505.94766,752.08566 504.70958,750.81289 503.20366,750.2445 C 502.44213,749.94241 501.66401,749.77672 500.8685,749.87579 z M 311.22849,751.59644 L 328.55788,755.40645 C 330.97576,755.93263 332.97564,756.68751 334.58015,757.86452 C 336.22018,759.04935 337.38853,760.45799 338.02145,761.92033 C 338.69657,763.35057 339.0661,764.69409 339.25048,765.97614 C 339.43477,767.25831 339.45035,768.38332 339.25048,769.54034 C 338.92637,771.41551 338.21333,773.03203 337.16112,774.21068 C 336.10879,775.38932 334.52934,776.42756 332.36789,777.40614 C 336.18096,781.17507 337.76899,785.22162 337.03822,789.45073 C 336.78997,790.88705 336.22442,792.24277 335.56338,793.50652 C 334.90214,794.77027 334.04712,795.96297 332.8595,797.07073 C 331.70743,798.18612 330.08873,798.89504 328.06627,799.28295 C 326.04361,799.67102 323.77947,799.60189 321.18368,799.0372 L 303.60849,795.22717 L 311.22849,751.59644 z M 416.67964,757.3729 L 435.85258,799.16004 L 427.49515,800.51202 L 423.80805,792.0317 L 409.18253,794.36684 L 407.70769,803.70748 L 399.47316,805.05946 L 407.70769,758.84774 L 416.67964,757.3729 z M 347.97662,758.72484 L 356.08825,759.58516 L 352.40115,803.83039 L 344.28952,802.97007 L 347.97662,758.72484 z M 362.72503,760.69129 L 371.08247,760.69129 L 386.6912,790.92555 L 386.6912,760.69129 L 394.92574,760.69129 L 394.92574,805.05946 L 386.6912,805.05946 L 370.83667,774.33359 L 370.83667,805.05946 L 362.60213,805.05946 L 362.72503,760.69129 z M 317.86529,760.8142 L 316.14463,770.64647 L 324.87077,772.61294 C 328.64,773.43293 330.8193,772.19753 331.38466,768.92582 C 331.95694,765.61448 330.36061,763.47772 326.59143,762.65775 L 317.86529,760.8142 z M 413.36125,768.43421 L 410.41157,786.50102 L 420.61255,784.90329 L 413.36125,768.43421 z M 314.9156,778.14355 L 312.94915,789.45073 L 322.53561,791.54005 C 326.48256,792.39877 328.77002,790.98888 329.4182,787.23843 C 330.07323,783.44818 328.44914,781.09158 324.50207,780.23294 L 314.9156,778.14355 z"
       style="opacity:1;fill:#0000aa;fill-opacity:1;stroke:none;stroke-width:2.06200004;stroke-linecap:round;stroke-linejoin:round;stroke-miterlimit:4;stroke-dasharray:none;stroke-dashoffset:0;stroke-opacity:1" />
    <path
       id="path5501"
       d="M 446.91389,371.94773 L 444.45582,378.95322 L 437.20451,380.30516 L 443.10388,384.72968 L 442.12065,392.10389 L 448.26583,387.80227 L 454.90261,390.99776 L 452.69035,383.99226 L 457.85229,378.58451 L 450.47809,378.46161 L 446.91389,371.94773 z M 293.2846,372.68515 L 293.2846,397.38874 L 276.56973,397.38874 L 276.56973,417.17619 L 293.2846,417.17619 L 293.2846,454.53883 C 293.52879,454.53647 293.77758,454.53844 294.02201,454.53883 C 295.95338,454.54183 297.97404,454.73037 299.92138,454.90754 C 304.63698,455.33658 308.97706,456.23695 313.07204,457.36561 L 313.07204,417.17619 L 329.66401,417.17619 L 329.66401,397.38874 L 313.07204,397.38874 L 313.07204,372.68515 L 293.2846,372.68515 z M 476.53362,399.47809 L 475.05877,403.77972 L 470.51135,404.51714 L 474.19845,407.34391 L 473.58393,411.89134 L 477.39394,409.18747 L 481.44975,411.15393 L 480.09782,406.8523 L 483.2933,403.53391 L 478.74588,403.411 L 476.53362,399.47809 z M 414.09867,399.96971 L 412.37802,404.88584 L 407.21608,405.86907 L 411.3948,408.94166 L 410.65738,414.10361 L 414.959,411.15393 L 419.62932,413.36618 L 418.15448,408.45005 L 421.71869,404.64004 L 416.55674,404.51714 L 414.09867,399.96971 z M 446.29937,409.55618 L 444.94744,413.73489 L 440.64581,414.47232 L 444.08711,417.17619 L 443.4726,421.47781 L 447.03679,418.89684 L 450.9697,420.8633 L 449.74067,416.68457 L 452.81326,413.48909 L 448.38873,413.36618 L 446.29937,409.55618 z M 455.39422,446.30431 L 454.04229,449.99141 L 450.10938,450.72883 L 453.30487,453.1869 L 452.81326,456.9969 L 456.00874,454.78465 L 459.57295,456.50529 L 458.46681,452.69528 L 461.17069,449.86851 L 457.23778,449.7456 L 455.39422,446.30431 z"
       style="fill:#ffffff;fill-opacity:1;stroke:none;stroke-width:2.06200004;stroke-linecap:round;stroke-linejoin:round;stroke-miterlimit:4;stroke-dasharray:none;stroke-dashoffset:0;stroke-opacity:1" />
    <path
       id="path5503"
       d="M 294.05899,454.53616 C 237.878,454.4483 188.72138,526.07866 159.60262,554.21085 C 174.68679,658.01583 264.13757,737.8285 372.10267,737.82858 C 387.94856,737.08038 402.33239,735.59666 415.36467,733.40406 C 415.4877,733.38337 415.6106,733.30196 415.73339,733.28116 C 415.81248,733.26479 415.90014,733.2976 415.97919,733.28116 C 482.85463,719.37808 538.26013,674.37965 566.5359,614.06482 C 560.80585,596.54123 550.2966,564.78782 531.26261,557.65215 C 509.13902,549.35827 495.29961,568.38844 488.12351,566.99281 C 481.67562,565.73864 471.98781,519.72761 435.15213,511.19464 C 397.58694,502.49273 388.87889,536.83855 378.61655,535.52953 C 368.23237,534.20488 363.03483,460.64405 299.95835,454.90487 C 298.01101,454.7277 295.99036,454.53919 294.05899,454.53616 z"
       style="fill:#f1d21b;fill-opacity:1;fill-rule:evenodd;stroke:none;stroke-width:1.01876426px;stroke-linecap:butt;stroke-linejoin:miter;stroke-opacity:1" />
    <path
       id="path6459"
       d="M 234.3206,276.94809 C 221.21488,276.94809 210.60024,287.56274 210.60024,300.66845 C 210.60024,303.12577 211.01233,305.56697 211.70637,307.79685 C 197.7445,318.10564 185.27866,328.56691 174.09791,339.13723 L 174.46663,338.0311 C 171.87676,335.23889 169.4489,332.36999 167.21532,329.42785 C 170.39642,328.81826 173.18119,327.07323 175.08114,324.14301 C 176.99635,321.18927 177.56918,317.73005 176.80179,314.55654 C 177.04823,312.13336 177.19827,309.18552 177.66212,307.67395 C 178.41047,305.23523 177.9362,303.51973 176.31018,302.3891 C 175.76814,302.01217 175.04535,301.53589 174.22082,301.28297 C 170.26636,300.06947 170.63499,302.91839 167.09242,303.00362 C 163.48291,303.09022 162.16126,301.71515 159.22659,305.8304 C 156.86615,309.14042 155.33628,305.92432 153.81884,310.86944 C 153.64958,311.42103 153.5846,311.81125 153.57304,312.34428 C 151.11226,317.79604 152.94877,324.47672 158.12047,327.83012 C 158.76295,328.24669 159.40393,328.53017 160.08692,328.81334 C 163.4907,333.2241 167.93289,337.12567 171.76275,341.34949 C 164.1484,348.68437 157.23265,356.14258 150.86916,363.59501 C 147.87284,360.4243 145.07717,357.16675 142.63463,353.76274 C 143.82855,353.80018 144.63346,353.48402 145.95302,352.5337 C 147.10733,351.70249 147.86155,350.42464 148.77981,349.33822 C 148.56259,349.08187 148.36866,348.76775 148.16529,348.47789 C 148.85552,347.32806 149.36703,345.93633 149.64013,344.54498 C 150.04813,342.4666 149.89313,340.52381 149.27142,338.64562 C 150.38408,337.32907 147.18466,330.2999 146.93625,327.3385 C 146.69953,324.51561 145.51545,322.79264 143.37206,322.29946 C 142.6576,322.1351 141.86835,322.09648 140.91399,322.17655 C 136.33655,322.56044 137.89315,325.29472 134.2772,326.84689 C 130.59266,328.42823 128.47242,327.41472 127.1488,332.86915 C 126.08412,337.25667 123.22729,334.51901 123.70751,340.24336 C 123.88779,342.3925 125.05594,343.97864 126.53428,345.40531 C 127.69339,349.61773 131.17618,353.11047 135.75204,354.00854 C 135.87777,354.03324 135.99517,354.11095 136.12075,354.13145 C 139.19058,358.81625 143.77927,362.77988 148.04238,366.91341 C 140.31194,376.25171 133.54179,385.67107 127.64042,395.18119 C 123.0808,391.74718 118.8012,388.08268 114.85846,384.24279 C 117.76598,382.85911 120.30668,380.57413 121.61815,377.3602 C 123.09873,373.73169 122.68872,369.82722 121.12653,366.5447 C 121.06423,364.02563 120.42836,360.05913 120.63492,358.18726 C 120.9147,355.65183 120.10834,354.07827 118.29976,353.27113 C 117.69692,353.00208 117.06765,352.75127 116.21039,352.65661 C 112.09882,352.20299 113.03795,354.98403 109.57361,355.72919 C 106.04375,356.4884 104.31405,355.31714 102.19941,359.90791 C 100.62353,363.32907 98.736358,361.08648 98.020687,364.82404 C 97.52632,365.56332 97.140659,366.30393 96.791652,367.15921 C 93.99964,374.00169 97.200478,381.81957 104.04296,384.6115 C 104.66341,384.86466 105.37739,385.19389 106.00941,385.34892 C 111.22508,390.84277 118.24497,395.05852 124.69073,399.72862 C 117.20318,412.43695 111.4008,425.33442 106.86973,438.3203 C 103.70567,435.08942 100.68649,431.84516 98.020687,428.36513 C 98.189841,428.12876 98.207224,427.91536 98.389396,427.6277 C 99.276661,426.22695 99.58917,424.53137 100.11005,422.95737 C 99.666019,422.72297 99.197217,422.40283 98.758107,422.09705 C 100.29277,416.27269 98.268027,409.93575 93.227452,406.24251 C 93.163975,406.1644 93.168774,406.07528 93.104549,405.99669 C 91.313462,403.80787 89.212108,401.52183 88.434218,399.97443 C 87.692786,398.49939 86.826169,397.29132 85.853246,396.65603 C 84.231708,395.59741 82.324521,395.77109 79.830978,397.02475 C 75.047143,399.42952 77.782364,401.64025 74.54613,404.89057 C 71.248582,408.20227 68.690853,408.12554 69.629993,414.59994 C 69.699409,415.07849 69.635814,415.45665 69.629993,415.82897 C 69.624015,415.8648 69.635656,415.91601 69.629993,415.95188 C 69.6237,416.15851 69.655203,416.38745 69.629993,416.5664 C 69.219869,419.48371 66.586314,418.98674 69.138379,424.0635 C 70.030441,425.83815 71.302541,427.02263 72.948386,427.87351 C 73.920404,429.03922 75.161946,429.96778 76.512585,430.82319 C 81.25414,433.82593 86.894838,433.93133 91.506804,431.43771 C 91.53693,431.43327 91.599896,431.31917 91.629708,431.31481 C 95.386187,435.96736 100.12715,440.15048 104.78037,444.34257 C 101.31623,455.35137 98.86111,466.46369 97.283266,477.6494 C 91.454182,475.1988 85.942798,472.47884 80.814206,469.16907 C 80.840595,469.15424 80.788445,469.0613 80.814206,469.04616 C 81.911173,468.4062 82.617405,467.69808 83.272274,466.09648 C 83.845928,464.69364 83.670481,463.17224 83.886791,461.67196 C 83.59198,461.57776 83.326784,461.42524 83.026467,461.30325 C 82.90726,457.59659 81.200613,454.13921 78.47904,451.59387 C 78.741051,449.776 71.649503,445.28033 69.752896,442.74482 C 68.848996,441.53636 67.903602,440.70227 66.926118,440.28675 C 65.296988,439.59425 63.561316,439.98766 61.518366,441.51579 C 57.599064,444.44734 60.468082,446.06019 58.07707,449.50452 C 55.640828,453.01389 53.243484,453.29198 55.127387,458.96808 C 55.148979,459.03321 55.230862,459.02817 55.250291,459.09098 C 55.261657,459.12803 55.116769,459.17762 55.127387,459.21389 C 54.90856,460.37598 55.052308,461.5061 55.127387,462.65518 C 54.626846,463.82098 54.074744,464.68542 56.233518,467.57132 C 56.257548,467.62331 56.20882,467.76544 56.233518,467.81712 C 57.681341,470.84488 60.258891,473.33059 63.607724,474.69972 C 67.590937,476.32818 71.871083,475.81985 75.406454,473.9623 C 75.429383,473.95027 75.506507,474.09743 75.529357,474.0852 C 81.507971,478.43925 89.166054,480.70661 96.668748,483.30296 C 94.934768,498.50877 94.757039,513.77912 96.054232,529.26884 C 89.69916,527.13311 83.574204,524.58062 77.987426,521.40302 C 78.40168,515.41328 74.737977,509.692 68.769669,507.76074 C 68.571529,507.69664 68.476864,507.69227 68.278055,507.63784 C 66.599568,506.30431 61.207823,504.85987 59.306104,503.58202 C 58.600344,503.10779 57.96978,502.9071 57.339649,502.7217 C 55.449257,502.16535 53.866418,502.78628 52.423511,504.93397 C 50.116585,508.36747 52.753719,508.89287 51.808995,512.30817 C 50.954373,515.39778 49.481302,516.4323 51.317381,519.43657 C 50.87308,525.44885 54.546024,531.26377 60.535139,533.20175 C 66.273057,535.05852 72.37127,532.86687 75.652261,528.16271 C 81.829486,531.63752 89.359828,533.33811 96.668748,535.29111 C 98.145321,549.11446 100.6612,563.06532 104.16586,577.07828 C 97.471377,574.98432 91.084135,572.51414 85.238729,569.21246 C 84.488801,565.21076 81.661315,561.73875 77.495812,560.48631 C 75.175081,559.78854 72.748043,559.76494 70.61322,560.48631 C 68.91086,560.37541 67.173143,560.41352 66.188697,560.1176 C 63.315352,559.25367 61.534333,560.03002 60.658042,562.94438 C 59.607325,566.43894 62.040145,566.08788 62.132883,569.21246 C 62.219919,572.14535 61.171405,573.5328 63.853531,575.72634 C 64.439889,577.07647 65.368055,578.2576 66.434504,579.29054 C 66.456449,579.34057 66.53027,579.36424 66.557407,579.41345 C 66.751378,579.76572 67.095272,580.0665 67.786441,580.39667 C 67.876702,580.46023 68.062807,580.45862 68.155152,580.51958 C 69.048315,581.10975 69.904431,581.79337 70.981931,582.11732 C 76.224814,583.69371 81.803647,581.13948 84.255501,576.46376 C 90.605971,579.85162 98.312627,581.35996 105.7636,583.22345 C 108.09216,591.88911 110.76394,600.55181 113.75233,609.27898 C 108.03537,609.04906 102.43479,608.50345 97.037459,607.31253 C 94.9024,601.99126 89.722482,598.21767 83.640985,598.21767 C 80.490763,598.21771 77.536518,599.20912 75.160648,600.92155 C 73.334362,601.34497 71.619731,601.78187 70.490317,601.78187 C 66.892688,601.78191 65.205469,603.41761 65.205469,607.06672 C 65.205469,611.44208 67.830214,610.27063 69.015476,613.82641 C 69.254046,614.54212 69.377618,615.07884 69.507089,615.66996 C 69.541463,615.82696 69.597586,616.01228 69.629993,616.16157 C 69.651663,616.25085 69.729574,616.31873 69.752896,616.40738 C 69.886851,617.00605 70.013372,617.63649 70.24451,618.12803 C 72.386806,623.43396 77.570538,627.22288 83.640985,627.22288 C 90.999694,627.22292 96.993803,621.67831 97.897783,614.56383 C 103.52834,615.68176 109.5941,615.30361 115.71878,614.93254 C 120.82802,629.23893 126.71748,643.62882 133.29397,658.07165 C 136.72646,664.00621 149.21789,657.1281 145.70722,650.45163 C 138.82128,638.07866 132.74089,625.89957 127.51751,613.82641 C 131.89106,612.81769 136.32574,611.94931 140.42238,610.50801 C 141.14957,610.64193 141.8689,610.75382 142.63463,610.75382 C 148.79829,610.75382 153.90077,606.22012 154.80207,600.30703 C 155.08241,599.85341 155.25853,599.38709 155.41659,598.83219 C 156.83382,593.85729 153.87572,595.76527 153.69595,591.70379 C 153.47244,586.65437 151.51546,587.10342 148.534,585.067 C 145.60796,583.06826 147.47317,580.91538 143.49495,579.78216 C 142.66551,579.54587 141.81962,579.515 141.15979,579.53635 C 139.18032,579.60038 137.92572,580.7701 137.22688,583.22345 C 136.79363,584.74423 135.26585,587.3243 134.15429,589.49152 C 131.78385,591.73687 130.34429,594.94321 130.34429,598.46348 C 130.34429,601.95571 131.81685,604.94747 134.15429,607.18962 C 131.48987,608.15071 128.72994,608.98708 125.91976,609.77059 C 121.91756,600.20399 118.4087,590.75415 115.47297,581.3799 C 120.69804,577.93707 126.3319,574.79585 130.46719,570.5644 C 130.59438,570.56841 130.70777,570.5644 130.8359,570.5644 C 135.49904,570.5644 139.57971,567.83787 141.5285,563.92761 C 143.25399,562.81236 144.74763,561.45437 145.33851,559.38019 C 146.91234,553.85559 143.57169,556.02482 143.37206,551.51437 C 143.12389,545.90706 140.90655,546.40163 137.59559,544.14016 C 134.34626,541.92058 136.35979,539.62211 131.94204,538.3637 C 131.02095,538.1013 130.21671,537.97131 129.48397,537.99499 C 127.28578,538.06606 125.83549,539.44926 125.05944,542.17371 C 124.24525,545.03167 119.67379,551.36012 120.51201,552.8663 C 119.5402,554.58947 119.03717,556.5247 119.03717,558.64276 C 119.03717,560.06062 119.31877,561.43734 119.7746,562.69858 C 119.51919,562.9438 119.29969,563.2263 119.03717,563.436 C 119.72898,564.67892 120.15393,566.08513 121.12653,567.1231 C 122.23833,568.30978 123.02035,568.77339 124.19912,568.96665 C 121.12689,571.85506 117.69711,574.5298 114.12103,577.07828 C 109.81179,562.54673 106.83351,548.24321 105.14909,534.18498 C 112.54193,532.444 120.21111,531.12738 126.78009,528.16271 C 127.42387,528.25793 128.07641,528.28562 128.74654,528.28562 C 136.13672,528.28562 142.14302,522.27936 142.14302,514.88914 C 142.14302,513.96538 142.07565,513.05652 141.89722,512.18527 C 142.64659,508.45439 140.09731,509.80306 139.93076,506.04009 C 139.70725,500.99067 137.62737,501.43985 134.64591,499.40331 C 131.71987,497.40457 133.58512,495.2518 129.60687,494.11846 C 128.77742,493.88217 128.05443,493.8513 127.39461,493.87265 C 125.41514,493.93672 124.16054,495.10652 123.4617,497.55976 C 122.9457,499.37098 120.78398,502.74801 119.7746,505.05686 C 117.08806,507.50597 115.35007,510.97019 115.35007,514.88914 C 115.35007,518.36036 116.745,521.48152 118.91427,523.86109 C 114.30856,525.72616 109.48304,527.2837 104.53457,528.65432 C 103.11983,513.80944 103.17681,499.20131 104.78037,484.9007 C 111.21878,483.78462 117.79339,482.85102 123.70751,480.84489 C 123.73032,480.86455 123.68442,480.94793 123.70751,480.96779 C 126.26984,485.54193 131.12289,488.58785 136.73527,488.58781 C 138.33396,488.58781 139.83783,488.31517 141.2827,487.85039 C 143.12841,488.01207 144.86444,487.7663 146.56754,486.74426 C 151.43979,483.82061 148.91746,482.79156 150.13174,480.10747 C 150.20623,479.94284 150.39521,479.79382 150.50045,479.61585 C 150.51485,479.58255 150.4863,479.52642 150.50045,479.49295 C 150.69478,479.17517 150.9232,478.8769 151.23788,478.50973 C 155.49521,473.54227 153.2352,472.25632 152.22111,467.69422 C 151.22592,463.21684 154.7303,462.82174 151.97529,458.23066 C 150.53931,455.83756 148.99548,454.63964 147.05916,454.66646 C 145.89737,454.68254 144.54182,455.16893 143.12625,456.01839 C 141.64122,456.90947 138.6821,457.83135 135.99785,458.72227 C 135.90157,458.75421 135.84742,458.81316 135.75204,458.84518 C 129.51755,459.26863 124.42094,463.42733 122.60137,469.16907 C 122.06681,469.19246 121.50417,469.3315 121.00363,469.29196 C 120.60157,470.90049 119.8973,472.42709 119.8975,474.0852 C 119.8975,474.42571 119.88106,474.65535 119.8975,474.94553 C 115.30649,476.63491 110.45761,477.89107 105.5178,479.00134 C 107.17052,467.38344 109.92194,455.95866 113.62942,444.71128 C 122.98739,444.97613 132.72185,446.32692 141.2827,444.21966 C 141.29925,444.23956 141.38897,444.19984 141.4056,444.21966 C 143.97505,447.27711 147.67202,449.38157 151.97529,449.38161 C 155.59322,449.38161 158.95291,447.9492 161.43886,445.6945 C 161.48129,445.656 161.5198,445.61062 161.56177,445.57161 C 164.65213,443.7172 164.53363,442.6614 164.51145,441.39289 C 165.01576,440.35775 165.50325,439.35584 165.74048,438.1974 C 165.76404,438.16783 165.71594,438.10447 165.74048,438.0745 C 165.78221,438.02356 165.81875,438.0037 165.86339,437.95159 C 169.75515,433.41065 167.65069,432.28962 166.72371,428.11931 C 165.81399,424.02638 169.11921,423.5899 166.60081,419.39317 C 165.28812,417.20557 163.82342,416.17318 162.05338,416.19768 C 160.99137,416.21239 159.78318,416.65021 158.48918,417.42672 C 155.77413,419.05589 147.50456,420.56101 147.05916,422.34285 C 143.57669,423.66903 140.70637,426.20831 139.19334,429.59416 C 138.86907,429.59353 138.51865,429.6185 138.21011,429.59416 C 137.84262,431.06459 137.10386,432.38019 137.10398,433.89578 C 137.10402,435.62618 137.43686,436.57539 138.21011,437.58288 C 138.22828,437.60655 138.19131,437.68203 138.21011,437.70579 C 130.86981,439.07939 123.30182,439.43796 115.47297,439.30353 C 119.54952,428.02367 124.75492,416.89294 130.95881,405.99669 C 139.14615,406.34881 147.49501,407.27764 155.04788,405.75089 C 156.72125,411.23667 161.79895,415.21453 167.82984,415.21446 C 174.1247,415.21446 179.42937,410.87052 180.8576,405.01347 C 183.52946,402.72027 182.44021,401.21062 182.57825,398.00798 C 182.73089,394.46773 185.43673,394.85654 184.2989,390.87957 C 183.5872,388.39201 182.33587,387.24513 180.36599,387.19248 C 179.70935,387.17493 178.97123,387.20435 178.15373,387.43828 C 175.95102,388.06849 170.45187,387.79236 168.44436,388.54441 C 168.23843,388.53497 168.03809,388.54441 167.82984,388.54441 C 161.55685,388.54441 156.37489,392.79612 154.92498,398.62249 C 148.24996,400.00475 141.28325,400.56586 134.15429,400.58894 C 140.00823,390.925 146.73382,381.42867 154.31046,372.07535 C 162.73562,372.34421 171.46263,373.3939 179.25986,371.82954 C 180.26161,377.01316 184.84644,381.0473 190.32117,381.0473 C 191.44634,381.0473 192.49139,380.74077 193.51666,380.43278 C 193.62273,380.40093 193.78064,380.46766 193.88537,380.43278 C 194.64233,380.31558 195.07299,380.09979 195.36021,379.81827 C 195.40041,379.77886 195.44768,379.73693 195.48312,379.69536 C 196.80178,379.01332 197.97414,378.11559 198.92441,376.99148 C 202.12458,375.66315 201.56076,374.12153 202.48861,371.33793 C 203.47711,368.3724 205.6841,369.33344 205.6841,365.68437 C 205.6841,362.64101 204.25999,361.38275 201.25958,361.38275 C 200.23159,361.38275 198.49726,360.9064 196.83505,360.52243 C 194.9983,359.21697 192.74455,358.55597 190.32117,358.55597 C 185.97145,358.55597 182.23641,360.96193 180.36599,364.57824 C 173.44057,366.14212 166.1733,366.64687 158.73498,366.6676 C 164.21938,360.22526 170.109,353.78562 176.43308,347.49466 C 185.45726,347.61749 194.92264,349.16764 203.34894,347.49466 C 204.25292,354.60914 210.24702,360.15376 217.60573,360.15372 C 223.67617,360.15372 228.85991,356.36479 231.0022,351.05886 C 231.23334,350.56733 231.35986,349.93688 231.49382,349.33822 C 231.51714,349.24956 231.59506,349.18168 231.61672,349.0924 C 231.64913,348.94311 231.70525,348.75779 231.73963,348.60079 C 231.8691,348.00967 231.99267,347.47295 232.23124,346.75724 C 233.4165,343.20146 236.04125,344.37291 236.04125,339.99755 C 236.04125,336.34844 234.35403,334.71274 230.7564,334.71271 C 229.62699,334.71271 227.91235,334.2758 226.08607,333.85238 C 223.7102,332.13995 220.75595,331.14855 217.60573,331.14851 C 211.52423,331.14851 206.34431,334.9221 204.20926,340.24336 C 197.01258,341.83131 189.45097,342.35553 181.71793,342.33272 C 191.75696,332.76446 202.74307,323.39603 214.77895,314.18783 C 219.06543,320.37792 226.22659,324.51172 234.3206,324.51172 C 247.42631,324.51172 258.04096,313.77417 258.04096,300.66845 C 258.04096,287.56274 247.42631,276.94809 234.3206,276.94809 z"
       style="fill:#008000;fill-opacity:1;fill-rule:evenodd;stroke:none;stroke-width:1px;stroke-linecap:butt;stroke-linejoin:miter;stroke-opacity:1" />
    <path
       id="path10106"
       d="M 514.71006,267.51442 C 502.82386,266.05904 491.49338,267.26294 483.03228,270.72969 C 501.13,274.84461 514.54657,292.59922 524.23997,305.36337 C 533.17295,317.12626 539.50899,321.62481 570.23174,322.55742 C 585.2385,334.73076 600.61095,356.69437 613.67151,382.47553 C 600.15017,384.35535 587.04182,385.09934 579.19488,372.57617 C 571.60845,331.67347 526.59508,322.80366 505.01217,331.64676 C 519.53012,334.94785 530.35384,349.07966 538.12991,359.31908 C 544.99406,368.35765 549.81336,372.14209 571.85862,373.09716 C 581.70899,387.92777 598.94635,387.98574 616.3759,387.67803 C 629.84045,415.48551 640.47138,447.22488 644.84875,475.77592 C 637.52374,476.7623 630.51872,476.9394 624.64122,474.05665 C 636.36244,435.9884 602.74723,406.97564 580.09787,403.90541 C 591.02035,414.02322 593.18133,431.72442 594.79587,444.47998 C 596.04055,454.31368 598.08248,459.88897 610.93082,469.018 C 619.25896,479.57724 632.0854,480.80851 645.48545,480.65375 C 647.77437,498.31594 647.5511,514.63618 643.98481,527.80207 C 639.16145,504.62893 616.00098,486.11865 597.83392,483.05566 C 620.97713,502.37624 623.50752,518.46628 630.28566,531.53192 C 620.14953,513.6358 611.60913,505.72495 595.07447,507.6074 C 608.51099,514.35214 614.99018,528.64827 618.34719,548.8928 C 613.73055,539.27205 605.35868,536.91619 597.33373,533.88235 C 608.36142,554.81101 609.88101,577.38855 610.88961,600.15392 C 604.54291,586.71953 597.8703,583.59846 590.67689,578.18276 C 597.67275,592.95119 603.56405,638.27318 593.5255,669.46752 C 631.33244,659.19241 659.68574,639.25892 683.23168,606.69915 C 674.61624,610.19134 667.46334,615.21866 659.61553,610.82237 C 677.42178,601.95326 687.18389,578.28957 697.86221,557.86484 C 690.09629,564.7761 682.29674,571.18533 675.34296,569.75076 C 690.68241,554.19005 689.29999,528.45756 700.39693,517.85574 C 689.54486,517.84134 680.90445,528.25981 676.08967,537.96459 C 682.04032,522.59993 685.03759,496.7539 682.97206,477.38625 C 683.62583,495.54957 667.0951,518.74489 655.72809,528.94473 C 657.50659,516.28776 657.35403,502.23115 655.55645,487.56092 C 665.08149,480.54284 667.41709,469.77989 668.184,458.04215 C 681.64101,434.78756 681.33082,428.66289 676.84361,417.2707 C 672.13162,405.30785 665.54141,388.64305 670.26011,374.52209 C 652.14387,387.89426 636.80509,428.5023 663.66655,456.24422 C 664.30258,466.18442 663.34535,475.40398 654.6837,481.30182 C 650.77616,455.51726 642.10339,428.02917 630.5153,402.26665 C 640.56361,392.2161 639.79374,379.52184 637.09667,366.35576 C 640.13996,345.68619 637.50841,340.51764 630.37824,332.60836 C 622.34756,323.70056 611.20412,311.3559 610.70519,297.47694 C 599.01092,315.46308 599.15593,357.31168 633.8342,371.96554 C 636.09264,380.79225 635.88714,389.24478 627.74815,396.44059 C 613.17734,365.58306 594.55627,337.60823 574.90592,318.93726 C 567.4271,285.9823 539.89343,270.59785 514.71006,267.51442 z"
       style="fill:#008000;fill-opacity:1;fill-rule:evenodd;stroke:none;stroke-width:1px;stroke-linecap:butt;stroke-linejoin:miter;stroke-opacity:1" />
  </g>
</svg>
